# Blender 3.5.0
# www.blender.org
mtllib diamond.mtl
o dobj
v 0.700000 0.000000 0.000000
v 0.646716 0.000000 -0.267878
v 0.494975 0.000000 -0.494975
v 0.267878 0.000000 -0.646716
v -0.000000 0.000000 -0.700000
v -0.267878 0.000000 -0.646716
v -0.494975 0.000000 -0.494975
v -0.646716 0.000000 -0.267878
v -0.700000 0.000000 0.000000
v -0.646716 0.000000 0.267878
v -0.494975 0.000000 0.494975
v -0.267879 0.000000 0.646716
v 0.000000 0.000000 0.700000
v 0.267879 0.000000 0.646716
v 0.494975 0.000000 0.494975
v 0.646716 0.000000 0.267878
v 0.700000 0.023800 0.000000
v 0.646716 0.023800 -0.267878
v 0.494975 0.023800 -0.494975
v 0.267878 0.023800 -0.646716
v -0.000000 0.023800 -0.700000
v -0.267878 0.023800 -0.646716
v -0.494975 0.023800 -0.494975
v -0.646716 0.023800 -0.267878
v -0.700000 0.023800 0.000000
v -0.646716 0.023800 0.267878
v -0.494975 0.023800 0.494975
v -0.267879 0.023800 0.646716
v 0.000000 0.023800 0.700000
v 0.267879 0.023800 0.646716
v 0.494975 0.023800 0.494975
v 0.646716 0.023800 0.267878
v 0.686550 0.012508 -0.136563
v 0.582029 0.012508 -0.388899
v 0.388899 0.012508 -0.582029
v 0.136563 0.012508 -0.686550
v -0.136563 0.012508 -0.686550
v -0.388899 0.012508 -0.582029
v -0.582029 0.012508 -0.388899
v -0.686550 0.012508 -0.136563
v -0.686550 0.012508 0.136563
v -0.582029 0.012508 0.388899
v -0.388899 0.012508 0.582029
v -0.136563 0.012508 0.686550
v 0.136563 0.012508 0.686550
v 0.388899 0.012508 0.582029
v 0.582029 0.012508 0.388899
v 0.686550 0.012508 0.136563
v 0.686550 0.012660 -0.136563
v 0.582029 0.012660 -0.388899
v 0.388899 0.012660 -0.582029
v 0.136563 0.012660 -0.686550
v -0.136563 0.012660 -0.686550
v -0.388899 0.012660 -0.582029
v -0.582029 0.012660 -0.388899
v -0.686550 0.012660 -0.136563
v -0.686550 0.012660 0.136563
v -0.582029 0.012660 0.388899
v -0.388899 0.012660 0.582029
v -0.136563 0.012660 0.686550
v 0.136563 0.012660 0.686550
v 0.388899 0.012660 0.582029
v 0.582029 0.012660 0.388899
v 0.686550 0.012660 0.136563
v 0.696629 0.009419 -0.068612
v 0.669858 0.009419 -0.203199
v 0.617345 0.009419 -0.329978
v 0.541107 0.009419 -0.444075
v 0.444075 0.009419 -0.541107
v 0.329978 0.009419 -0.617345
v 0.203199 0.009419 -0.669858
v 0.068612 0.009419 -0.696629
v -0.068612 0.009419 -0.696629
v -0.203199 0.009419 -0.669858
v -0.329978 0.009419 -0.617345
v -0.444075 0.009419 -0.541107
v -0.541107 0.009419 -0.444075
v -0.617345 0.009419 -0.329978
v -0.669858 0.009419 -0.203199
v -0.696629 0.009419 -0.068612
v -0.696629 0.009419 0.068612
v -0.669858 0.009419 0.203199
v -0.617345 0.009419 0.329978
v -0.541107 0.009419 0.444075
v -0.444075 0.009419 0.541107
v -0.329978 0.009419 0.617345
v -0.203199 0.009419 0.669858
v -0.068612 0.009419 0.696629
v 0.068612 0.009419 0.696629
v 0.203199 0.009419 0.669858
v 0.329978 0.009419 0.617345
v 0.444075 0.009419 0.541107
v 0.541107 0.009419 0.444075
v 0.617345 0.009419 0.329978
v 0.669858 0.009419 0.203199
v 0.696629 0.009419 0.068612
v 0.696629 0.015412 -0.068612
v 0.669858 0.015412 -0.203199
v 0.617345 0.015412 -0.329978
v 0.541107 0.015412 -0.444075
v 0.444075 0.015412 -0.541107
v 0.329978 0.015412 -0.617345
v 0.203199 0.015412 -0.669858
v 0.068612 0.015412 -0.696629
v -0.068612 0.015412 -0.696629
v -0.203199 0.015412 -0.669858
v -0.329978 0.015412 -0.617345
v -0.444075 0.015412 -0.541107
v -0.541107 0.015412 -0.444075
v -0.617345 0.015412 -0.329978
v -0.669858 0.015412 -0.203199
v -0.696629 0.015412 -0.068612
v -0.696629 0.015412 0.068612
v -0.669858 0.015412 0.203199
v -0.617345 0.015412 0.329978
v -0.541107 0.015412 0.444075
v -0.444075 0.015412 0.541107
v -0.329978 0.015412 0.617345
v -0.203199 0.015412 0.669858
v -0.068612 0.015412 0.696629
v 0.068612 0.015412 0.696629
v 0.203199 0.015412 0.669858
v 0.329978 0.015412 0.617345
v 0.444075 0.015412 0.541107
v 0.541107 0.015412 0.444075
v 0.617345 0.015412 0.329978
v 0.669858 0.015412 0.203199
v 0.696629 0.015412 0.068612
v 0.453250 0.193900 -0.187742
v 0.187742 0.193900 -0.453250
v -0.187742 0.193900 -0.453250
v -0.453250 0.193900 -0.187742
v -0.453250 0.193900 0.187742
v -0.187742 0.193900 0.453250
v 0.187742 0.193900 0.453250
v 0.453250 0.193900 0.187742
v 0.371000 0.250600 0.000000
v 0.262337 0.250600 -0.262337
v -0.000000 0.250600 -0.371000
v -0.262337 0.250600 -0.262337
v -0.371000 0.250600 0.000000
v -0.262337 0.250600 0.262337
v 0.000000 0.250600 0.371000
v 0.262337 0.250600 0.262337
v 0.280000 -0.362040 -0.115980
v 0.115980 -0.362040 -0.280000
v -0.115980 -0.362040 -0.280000
v -0.280000 -0.362040 -0.115980
v -0.280000 -0.362040 0.115980
v -0.115980 -0.362040 0.280000
v 0.115980 -0.362040 0.280000
v 0.280000 -0.362040 0.115980
v 0.000000 -0.603400 0.000000
vn 0.9988 -0.0000 -0.0491
vn 0.9988 -0.0000 0.0491
vn 0.9040 -0.0000 -0.4276
vn 0.9415 -0.0000 -0.3369
vn 0.6716 -0.0000 -0.7410
vn 0.7410 -0.0000 -0.6716
vn 0.3369 -0.0000 -0.9415
vn 0.4276 -0.0000 -0.9040
vn -0.0491 -0.0000 -0.9988
vn 0.0491 -0.0000 -0.9988
vn -0.4276 -0.0000 -0.9040
vn -0.3369 -0.0000 -0.9415
vn -0.7410 -0.0000 -0.6716
vn -0.6716 -0.0000 -0.7410
vn -0.9415 -0.0000 -0.3369
vn -0.9040 -0.0000 -0.4276
vn -0.9988 -0.0000 0.0491
vn -0.9988 -0.0000 -0.0491
vn -0.9040 -0.0000 0.4276
vn -0.9415 -0.0000 0.3369
vn -0.6716 -0.0000 0.7410
vn -0.7410 -0.0000 0.6716
vn -0.3369 -0.0000 0.9415
vn -0.4276 -0.0000 0.9040
vn 0.0491 -0.0000 0.9988
vn -0.0491 -0.0000 0.9988
vn 0.4276 -0.0000 0.9040
vn 0.3369 -0.0000 0.9415
vn 0.7410 -0.0000 0.6716
vn 0.6716 -0.0000 0.7410
vn 0.9415 -0.0000 0.3369
vn 0.9040 -0.0000 0.4276
vn 0.9892 -0.0000 -0.1467
vn 0.9700 -0.0000 -0.2430
vn 0.8577 -0.0000 -0.5141
vn 0.8032 -0.0000 -0.5957
vn 0.5957 -0.0000 -0.8032
vn 0.5141 -0.0000 -0.8577
vn 0.2430 -0.0000 -0.9700
vn 0.1467 -0.0000 -0.9892
vn -0.1467 -0.0000 -0.9892
vn -0.2430 -0.0000 -0.9700
vn -0.5141 -0.0000 -0.8577
vn -0.5957 -0.0000 -0.8032
vn -0.8032 -0.0000 -0.5957
vn -0.8577 -0.0000 -0.5141
vn -0.9700 -0.0000 -0.2430
vn -0.9892 -0.0000 -0.1467
vn -0.9892 -0.0000 0.1467
vn -0.9700 -0.0000 0.2430
vn -0.8577 -0.0000 0.5141
vn -0.8032 -0.0000 0.5957
vn -0.5957 -0.0000 0.8032
vn -0.5141 -0.0000 0.8577
vn -0.2430 -0.0000 0.9700
vn -0.1467 -0.0000 0.9892
vn 0.1467 -0.0000 0.9892
vn 0.2430 -0.0000 0.9700
vn 0.5141 -0.0000 0.8577
vn 0.5957 -0.0000 0.8032
vn 0.8032 -0.0000 0.5957
vn 0.8577 -0.0000 0.5141
vn 0.9700 -0.0000 0.2430
vn 0.9892 -0.0000 0.1467
vn 0.6257 0.7701 0.1245
vn 0.5304 0.7701 0.3544
vn 0.5304 0.7701 -0.3544
vn 0.6257 0.7701 -0.1245
vn 0.1245 0.7701 -0.6257
vn 0.3544 0.7701 -0.5304
vn -0.3544 0.7701 -0.5304
vn -0.1245 0.7701 -0.6257
vn -0.6257 0.7701 -0.1245
vn -0.5304 0.7701 -0.3544
vn -0.5304 0.7701 0.3544
vn -0.6257 0.7701 0.1245
vn -0.1245 0.7701 0.6257
vn -0.3544 0.7701 0.5304
vn 0.3544 0.7701 0.5304
vn 0.1245 0.7701 0.6257
vn 0.3308 0.9337 -0.1370
vn 0.4013 0.8233 -0.4013
vn 0.1370 0.9337 -0.3308
vn -0.0000 0.8233 -0.5676
vn -0.1370 0.9337 -0.3308
vn -0.4013 0.8233 -0.4013
vn -0.3308 0.9337 -0.1370
vn -0.5676 0.8233 -0.0000
vn -0.3308 0.9337 0.1370
vn -0.4013 0.8233 0.4013
vn -0.1370 0.9337 0.3308
vn -0.0000 0.8233 0.5676
vn 0.1370 0.9337 0.3308
vn 0.4013 0.8233 0.4013
vn 0.3308 0.9337 0.1370
vn 0.5676 0.8233 -0.0000
vn -0.0000 1.0000 -0.0000
vn 0.6680 -0.7322 -0.1329
vn 0.6680 -0.7322 0.1329
vn 0.3784 -0.7322 -0.5663
vn 0.5663 -0.7322 -0.3784
vn -0.1329 -0.7322 -0.6680
vn 0.1329 -0.7322 -0.6680
vn -0.5663 -0.7322 -0.3784
vn -0.3784 -0.7322 -0.5663
vn -0.6680 -0.7322 0.1329
vn -0.6680 -0.7322 -0.1329
vn -0.3784 -0.7322 0.5663
vn -0.5663 -0.7322 0.3784
vn 0.1329 -0.7322 0.6680
vn -0.1329 -0.7322 0.6680
vn 0.5663 -0.7322 0.3784
vn 0.3784 -0.7322 0.5663
vn 0.6529 -0.7574 -0.0000
vn 0.4617 -0.7574 -0.4617
vn -0.0000 -0.7574 -0.6529
vn -0.4617 -0.7574 -0.4617
vn -0.6529 -0.7574 -0.0000
vn -0.4617 -0.7574 0.4617
vn -0.0000 -0.7574 0.6529
vn 0.4617 -0.7574 0.4617
vn 0.6258 0.7699 0.1249
vn 0.6257 0.7701 0.1240
vn 0.6202 0.7747 0.1234
vn 0.5308 0.7699 0.3542
vn 0.5258 0.7747 0.3513
vn 0.5302 0.7701 0.3548
vn 0.5302 0.7701 -0.3548
vn 0.5258 0.7747 -0.3513
vn 0.5308 0.7699 -0.3542
vn 0.6257 0.7701 -0.1240
vn 0.6258 0.7699 -0.1249
vn 0.6202 0.7747 -0.1234
vn 0.1240 0.7701 -0.6257
vn 0.1234 0.7747 -0.6202
vn 0.1249 0.7699 -0.6258
vn 0.3548 0.7701 -0.5302
vn 0.3542 0.7699 -0.5308
vn 0.3513 0.7747 -0.5258
vn -0.3548 0.7701 -0.5302
vn -0.3513 0.7747 -0.5258
vn -0.3542 0.7699 -0.5308
vn -0.1240 0.7701 -0.6257
vn -0.1249 0.7699 -0.6258
vn -0.1234 0.7747 -0.6202
vn -0.6257 0.7701 -0.1240
vn -0.6202 0.7747 -0.1234
vn -0.6258 0.7699 -0.1249
vn -0.5302 0.7701 -0.3548
vn -0.5308 0.7699 -0.3542
vn -0.5258 0.7747 -0.3513
vn -0.5302 0.7701 0.3548
vn -0.5258 0.7747 0.3513
vn -0.5308 0.7699 0.3542
vn -0.6257 0.7701 0.1240
vn -0.6258 0.7699 0.1249
vn -0.6202 0.7747 0.1234
vn -0.1240 0.7701 0.6257
vn -0.1234 0.7747 0.6202
vn -0.1249 0.7699 0.6258
vn -0.3548 0.7701 0.5302
vn -0.3542 0.7699 0.5308
vn -0.3513 0.7747 0.5258
vn 0.3548 0.7701 0.5302
vn 0.3513 0.7747 0.5258
vn 0.3542 0.7699 0.5308
vn 0.1240 0.7701 0.6257
vn 0.1249 0.7699 0.6258
vn 0.1234 0.7747 0.6202
vn 0.6679 -0.7322 -0.1333
vn 0.6681 -0.7322 -0.1324
vn 0.6627 -0.7372 -0.1318
vn 0.6679 -0.7322 0.1333
vn 0.6627 -0.7372 0.1318
vn 0.6681 -0.7322 0.1324
vn 0.3780 -0.7322 -0.5666
vn 0.3788 -0.7322 -0.5660
vn 0.3754 -0.7372 -0.5618
vn 0.5666 -0.7322 -0.3780
vn 0.5618 -0.7372 -0.3754
vn 0.5660 -0.7322 -0.3788
vn -0.1333 -0.7322 -0.6679
vn -0.1324 -0.7322 -0.6681
vn -0.1318 -0.7372 -0.6627
vn 0.1333 -0.7322 -0.6679
vn 0.1318 -0.7372 -0.6627
vn 0.1324 -0.7322 -0.6681
vn -0.5666 -0.7322 -0.3780
vn -0.5660 -0.7322 -0.3788
vn -0.5618 -0.7372 -0.3754
vn -0.3780 -0.7322 -0.5666
vn -0.3754 -0.7372 -0.5618
vn -0.3788 -0.7322 -0.5660
vn -0.6679 -0.7322 0.1333
vn -0.6681 -0.7322 0.1324
vn -0.6627 -0.7372 0.1318
vn -0.6679 -0.7322 -0.1333
vn -0.6627 -0.7372 -0.1318
vn -0.6681 -0.7322 -0.1324
vn -0.3780 -0.7322 0.5666
vn -0.3788 -0.7322 0.5660
vn -0.3754 -0.7372 0.5618
vn -0.5666 -0.7322 0.3780
vn -0.5618 -0.7372 0.3754
vn -0.5660 -0.7322 0.3788
vn 0.1333 -0.7322 0.6679
vn 0.1324 -0.7322 0.6681
vn 0.1318 -0.7372 0.6627
vn -0.1333 -0.7322 0.6679
vn -0.1318 -0.7372 0.6627
vn -0.1324 -0.7322 0.6681
vn 0.5666 -0.7322 0.3780
vn 0.5660 -0.7322 0.3788
vn 0.5618 -0.7372 0.3754
vn 0.3780 -0.7322 0.5666
vn 0.3754 -0.7372 0.5618
vn 0.3788 -0.7322 0.5660
s 0
g off
f 65//1 17//1 1//1
f 17//2 96//2 1//2
f 67//3 18//3 2//3
f 18//4 66//4 2//4
f 69//5 19//5 3//5
f 19//6 68//6 3//6
f 71//7 20//7 4//7
f 20//8 70//8 4//8
f 73//9 21//9 5//9
f 21//10 72//10 5//10
f 75//11 22//11 6//11
f 22//12 74//12 6//12
f 77//13 23//13 7//13
f 23//14 76//14 7//14
f 79//15 24//15 8//15
f 24//16 78//16 8//16
f 81//17 25//17 9//17
f 25//18 80//18 9//18
f 83//19 26//19 10//19
f 26//20 82//20 10//20
f 85//21 27//21 11//21
f 27//22 84//22 11//22
f 87//23 28//23 12//23
f 28//24 86//24 12//24
f 89//25 29//25 13//25
f 29//26 88//26 13//26
f 91//27 30//27 14//27
f 30//28 90//28 14//28
f 93//29 31//29 15//29
f 31//30 92//30 15//30
f 95//31 32//31 16//31
f 32//32 94//32 16//32
f 33//33 97//33 65//33
f 33//34 98//34 49//34
f 34//35 99//35 67//35
f 34//36 100//36 50//36
f 35//37 101//37 69//37
f 35//38 102//38 51//38
f 36//39 103//39 71//39
f 36//40 104//40 52//40
f 37//41 105//41 73//41
f 37//42 106//42 53//42
f 38//43 107//43 75//43
f 38//44 108//44 54//44
f 39//45 109//45 77//45
f 39//46 110//46 55//46
f 40//47 111//47 79//47
f 40//48 112//48 56//48
f 41//49 113//49 81//49
f 41//50 114//50 57//50
f 42//51 115//51 83//51
f 42//52 116//52 58//52
f 43//53 117//53 85//53
f 43//54 118//54 59//54
f 44//55 119//55 87//55
f 44//56 120//56 60//56
f 45//57 121//57 89//57
f 45//58 122//58 61//58
f 46//59 123//59 91//59
f 46//60 124//60 62//60
f 47//61 125//61 93//61
f 47//62 126//62 63//62
f 48//63 127//63 95//63
f 48//64 128//64 64//64
f 136//65 127//65 128//65
f 125//66 126//66 136//66
f 99//67 100//67 129//67
f 129//68 97//68 98//68
f 103//69 104//69 130//69
f 130//70 101//70 102//70
f 107//71 108//71 131//71
f 131//72 105//72 106//72
f 111//73 112//73 132//73
f 132//74 109//74 110//74
f 115//75 116//75 133//75
f 133//76 113//76 114//76
f 119//77 120//77 134//77
f 134//78 117//78 118//78
f 123//79 124//79 135//79
f 135//80 121//80 122//80
f 137//81 129//81 138//81
f 138//82 19//82 130//82
f 138//83 130//83 139//83
f 139//84 21//84 131//84
f 139//85 131//85 140//85
f 140//86 23//86 132//86
f 140//87 132//87 141//87
f 141//88 25//88 133//88
f 141//89 133//89 142//89
f 142//90 27//90 134//90
f 142//91 134//91 143//91
f 143//92 29//92 135//92
f 143//93 135//93 144//93
f 144//94 31//94 136//94
f 144//95 136//95 137//95
f 17//96 137//96 136//96
f 140//97 142//97 144//97
f 145//98 66//98 65//98
f 96//99 95//99 152//99
f 146//100 70//100 69//100
f 68//101 67//101 145//101
f 147//102 74//102 73//102
f 72//103 71//103 146//103
f 148//104 78//104 77//104
f 76//105 75//105 147//105
f 149//106 82//106 81//106
f 80//107 79//107 148//107
f 150//108 86//108 85//108
f 84//109 83//109 149//109
f 151//110 90//110 89//110
f 88//111 87//111 150//111
f 152//112 94//112 93//112
f 92//113 91//113 151//113
f 152//114 145//114 1//114
f 145//115 146//115 3//115
f 146//116 147//116 5//116
f 147//117 148//117 7//117
f 148//118 149//118 9//118
f 149//119 150//119 11//119
f 150//120 151//120 13//120
f 151//121 152//121 15//121
f 65//1 97//1 17//1
f 17//2 128//2 96//2
f 67//3 99//3 18//3
f 18//4 98//4 66//4
f 69//5 101//5 19//5
f 19//6 100//6 68//6
f 71//7 103//7 20//7
f 20//8 102//8 70//8
f 73//9 105//9 21//9
f 21//10 104//10 72//10
f 75//11 107//11 22//11
f 22//12 106//12 74//12
f 77//13 109//13 23//13
f 23//14 108//14 76//14
f 79//15 111//15 24//15
f 24//16 110//16 78//16
f 81//17 113//17 25//17
f 25//18 112//18 80//18
f 83//19 115//19 26//19
f 26//20 114//20 82//20
f 85//21 117//21 27//21
f 27//22 116//22 84//22
f 87//23 119//23 28//23
f 28//24 118//24 86//24
f 89//25 121//25 29//25
f 29//26 120//26 88//26
f 91//27 123//27 30//27
f 30//28 122//28 90//28
f 93//29 125//29 31//29
f 31//30 124//30 92//30
f 95//31 127//31 32//31
f 32//32 126//32 94//32
f 33//33 49//33 97//33
f 33//34 66//34 98//34
f 34//35 50//35 99//35
f 34//36 68//36 100//36
f 35//37 51//37 101//37
f 35//38 70//38 102//38
f 36//39 52//39 103//39
f 36//40 72//40 104//40
f 37//41 53//41 105//41
f 37//42 74//42 106//42
f 38//43 54//43 107//43
f 38//44 76//44 108//44
f 39//45 55//45 109//45
f 39//46 78//46 110//46
f 40//47 56//47 111//47
f 40//48 80//48 112//48
f 41//49 57//49 113//49
f 41//50 82//50 114//50
f 42//51 58//51 115//51
f 42//52 84//52 116//52
f 43//53 59//53 117//53
f 43//54 86//54 118//54
f 44//55 60//55 119//55
f 44//56 88//56 120//56
f 45//57 61//57 121//57
f 45//58 90//58 122//58
f 46//59 62//59 123//59
f 46//60 92//60 124//60
f 47//61 63//61 125//61
f 47//62 94//62 126//62
f 48//63 64//63 127//63
f 48//64 96//64 128//64
f 128//122 17//122 136//122
f 136//123 32//123 127//123
f 127//124 64//124 128//124
f 136//125 31//125 125//125
f 125//126 63//126 126//126
f 126//127 32//127 136//127
f 129//128 18//128 99//128
f 99//129 50//129 100//129
f 100//130 19//130 129//130
f 98//131 18//131 129//131
f 129//132 17//132 97//132
f 97//133 49//133 98//133
f 130//134 20//134 103//134
f 103//135 52//135 104//135
f 104//136 21//136 130//136
f 102//137 20//137 130//137
f 130//138 19//138 101//138
f 101//139 51//139 102//139
f 131//140 22//140 107//140
f 107//141 54//141 108//141
f 108//142 23//142 131//142
f 106//143 22//143 131//143
f 131//144 21//144 105//144
f 105//145 53//145 106//145
f 132//146 24//146 111//146
f 111//147 56//147 112//147
f 112//148 25//148 132//148
f 110//149 24//149 132//149
f 132//150 23//150 109//150
f 109//151 55//151 110//151
f 133//152 26//152 115//152
f 115//153 58//153 116//153
f 116//154 27//154 133//154
f 114//155 26//155 133//155
f 133//156 25//156 113//156
f 113//157 57//157 114//157
f 134//158 28//158 119//158
f 119//159 60//159 120//159
f 120//160 29//160 134//160
f 118//161 28//161 134//161
f 134//162 27//162 117//162
f 117//163 59//163 118//163
f 135//164 30//164 123//164
f 123//165 62//165 124//165
f 124//166 31//166 135//166
f 122//167 30//167 135//167
f 135//168 29//168 121//168
f 121//169 61//169 122//169
f 138//82 129//82 19//82
f 139//84 130//84 21//84
f 140//86 131//86 23//86
f 141//88 132//88 25//88
f 142//90 133//90 27//90
f 143//92 134//92 29//92
f 144//94 135//94 31//94
f 17//96 129//96 137//96
f 144//97 137//97 138//97
f 138//97 139//97 140//97
f 140//97 141//97 142//97
f 142//97 143//97 144//97
f 144//97 138//97 140//97
f 65//170 1//170 145//170
f 145//171 2//171 66//171
f 66//172 33//172 65//172
f 152//173 1//173 96//173
f 96//174 48//174 95//174
f 95//175 16//175 152//175
f 69//176 3//176 146//176
f 146//177 4//177 70//177
f 70//178 35//178 69//178
f 145//179 3//179 68//179
f 68//180 34//180 67//180
f 67//181 2//181 145//181
f 73//182 5//182 147//182
f 147//183 6//183 74//183
f 74//184 37//184 73//184
f 146//185 5//185 72//185
f 72//186 36//186 71//186
f 71//187 4//187 146//187
f 77//188 7//188 148//188
f 148//189 8//189 78//189
f 78//190 39//190 77//190
f 147//191 7//191 76//191
f 76//192 38//192 75//192
f 75//193 6//193 147//193
f 81//194 9//194 149//194
f 149//195 10//195 82//195
f 82//196 41//196 81//196
f 148//197 9//197 80//197
f 80//198 40//198 79//198
f 79//199 8//199 148//199
f 85//200 11//200 150//200
f 150//201 12//201 86//201
f 86//202 43//202 85//202
f 149//203 11//203 84//203
f 84//204 42//204 83//204
f 83//205 10//205 149//205
f 89//206 13//206 151//206
f 151//207 14//207 90//207
f 90//208 45//208 89//208
f 150//209 13//209 88//209
f 88//210 44//210 87//210
f 87//211 12//211 150//211
f 93//212 15//212 152//212
f 152//213 16//213 94//213
f 94//214 47//214 93//214
f 151//215 15//215 92//215
f 92//216 46//216 91//216
f 91//217 14//217 151//217
f 152//114 153//114 145//114
f 145//115 153//115 146//115
f 146//116 153//116 147//116
f 147//117 153//117 148//117
f 148//118 153//118 149//118
f 149//119 153//119 150//119
f 150//120 153//120 151//120
f 151//121 153//121 152//121
