# Blender 3.5.1
# www.blender.org
mtllib diamondTransparent.mtl
o dobj
v 0.700000 0.000000 0.000000
v 0.646716 -0.000000 -0.267878
v 0.494975 -0.000000 -0.494975
v 0.267878 -0.000000 -0.646716
v 0.000000 -0.000000 -0.700000
v -0.267878 -0.000000 -0.646716
v -0.494975 -0.000000 -0.494975
v -0.646716 -0.000000 -0.267878
v -0.700000 0.000000 0.000000
v -0.646716 0.000000 0.267878
v -0.494975 0.000000 0.494975
v -0.267879 0.000000 0.646716
v 0.000000 0.000000 0.700000
v 0.267879 0.000000 0.646716
v 0.494975 0.000000 0.494975
v 0.646716 0.000000 0.267878
v 0.700000 0.023800 -0.000000
v 0.646716 0.023800 -0.267878
v 0.494975 0.023800 -0.494975
v 0.267878 0.023800 -0.646716
v 0.000000 0.023800 -0.700000
v -0.267878 0.023800 -0.646716
v -0.494975 0.023800 -0.494975
v -0.646716 0.023800 -0.267878
v -0.700000 0.023800 -0.000000
v -0.646716 0.023800 0.267878
v -0.494975 0.023800 0.494975
v -0.267879 0.023800 0.646716
v 0.000000 0.023800 0.700000
v 0.267879 0.023800 0.646716
v 0.494975 0.023800 0.494975
v 0.646716 0.023800 0.267878
v 0.686550 0.012508 -0.136563
v 0.582029 0.012508 -0.388899
v 0.388899 0.012508 -0.582029
v 0.136563 0.012508 -0.686550
v -0.136563 0.012508 -0.686550
v -0.388899 0.012508 -0.582029
v -0.582029 0.012508 -0.388899
v -0.686550 0.012508 -0.136563
v -0.686550 0.012508 0.136563
v -0.582029 0.012508 0.388899
v -0.388899 0.012508 0.582029
v -0.136563 0.012508 0.686550
v 0.136563 0.012508 0.686550
v 0.388899 0.012508 0.582029
v 0.582029 0.012508 0.388899
v 0.686550 0.012508 0.136563
v 0.686550 0.012660 -0.136563
v 0.582029 0.012660 -0.388899
v 0.388899 0.012660 -0.582029
v 0.136563 0.012660 -0.686550
v -0.136563 0.012660 -0.686550
v -0.388899 0.012660 -0.582029
v -0.582029 0.012660 -0.388899
v -0.686550 0.012660 -0.136563
v -0.686550 0.012660 0.136563
v -0.582029 0.012660 0.388899
v -0.388899 0.012660 0.582029
v -0.136563 0.012660 0.686550
v 0.136563 0.012660 0.686550
v 0.388899 0.012660 0.582029
v 0.582029 0.012660 0.388899
v 0.686550 0.012660 0.136563
v 0.696629 0.009419 -0.068612
v 0.669858 0.009419 -0.203199
v 0.617345 0.009419 -0.329978
v 0.541107 0.009419 -0.444075
v 0.444075 0.009419 -0.541107
v 0.329978 0.009419 -0.617345
v 0.203199 0.009419 -0.669858
v 0.068612 0.009419 -0.696629
v -0.068612 0.009419 -0.696629
v -0.203199 0.009419 -0.669858
v -0.329978 0.009419 -0.617345
v -0.444075 0.009419 -0.541107
v -0.541107 0.009419 -0.444075
v -0.617345 0.009419 -0.329978
v -0.669858 0.009419 -0.203199
v -0.696629 0.009419 -0.068612
v -0.696629 0.009419 0.068612
v -0.669858 0.009419 0.203199
v -0.617345 0.009419 0.329978
v -0.541107 0.009419 0.444075
v -0.444075 0.009419 0.541107
v -0.329978 0.009419 0.617345
v -0.203199 0.009419 0.669858
v -0.068612 0.009419 0.696629
v 0.068612 0.009419 0.696629
v 0.203199 0.009419 0.669858
v 0.329978 0.009419 0.617345
v 0.444075 0.009419 0.541107
v 0.541107 0.009419 0.444075
v 0.617345 0.009419 0.329978
v 0.669858 0.009419 0.203199
v 0.696629 0.009419 0.068612
v 0.696629 0.015412 -0.068612
v 0.669858 0.015412 -0.203199
v 0.617345 0.015412 -0.329978
v 0.541107 0.015412 -0.444075
v 0.444075 0.015412 -0.541107
v 0.329978 0.015412 -0.617345
v 0.203199 0.015412 -0.669858
v 0.068612 0.015412 -0.696629
v -0.068612 0.015412 -0.696629
v -0.203199 0.015412 -0.669858
v -0.329978 0.015412 -0.617345
v -0.444075 0.015412 -0.541107
v -0.541107 0.015412 -0.444075
v -0.617345 0.015412 -0.329978
v -0.669858 0.015412 -0.203199
v -0.696629 0.015412 -0.068612
v -0.696629 0.015412 0.068612
v -0.669858 0.015412 0.203199
v -0.617345 0.015412 0.329978
v -0.541107 0.015412 0.444075
v -0.444075 0.015412 0.541107
v -0.329978 0.015412 0.617345
v -0.203199 0.015412 0.669858
v -0.068612 0.015412 0.696629
v 0.068612 0.015412 0.696629
v 0.203199 0.015412 0.669858
v 0.329978 0.015412 0.617345
v 0.444075 0.015412 0.541107
v 0.541107 0.015412 0.444075
v 0.617345 0.015412 0.329978
v 0.669858 0.015412 0.203199
v 0.696629 0.015412 0.068612
v 0.453250 0.193900 -0.187742
v 0.187742 0.193900 -0.453250
v -0.187742 0.193900 -0.453250
v -0.453250 0.193900 -0.187742
v -0.453250 0.193900 0.187742
v -0.187742 0.193900 0.453250
v 0.187742 0.193900 0.453250
v 0.453250 0.193900 0.187742
v 0.371000 0.250600 -0.000000
v 0.262337 0.250600 -0.262337
v 0.000000 0.250600 -0.371000
v -0.262337 0.250600 -0.262337
v -0.371000 0.250600 -0.000000
v -0.262337 0.250600 0.262337
v 0.000000 0.250600 0.371000
v 0.262337 0.250600 0.262337
v 0.280000 -0.362040 -0.115980
v 0.115980 -0.362040 -0.280000
v -0.115980 -0.362040 -0.280000
v -0.280000 -0.362040 -0.115980
v -0.280000 -0.362040 0.115980
v -0.115980 -0.362040 0.280000
v 0.115980 -0.362040 0.280000
v 0.280000 -0.362040 0.115980
v 0.000000 -0.603400 0.000000
vn 0.9988 -0.0000 -0.0491
vn 0.9988 -0.0000 0.0491
vn 0.9040 -0.0000 -0.4276
vn 0.9415 -0.0000 -0.3369
vn 0.6716 -0.0000 -0.7410
vn 0.7410 -0.0000 -0.6716
vn 0.3369 -0.0000 -0.9415
vn 0.4276 -0.0000 -0.9040
vn -0.0491 -0.0000 -0.9988
vn 0.0491 -0.0000 -0.9988
vn -0.4276 -0.0000 -0.9040
vn -0.3369 -0.0000 -0.9415
vn -0.7410 -0.0000 -0.6716
vn -0.6716 -0.0000 -0.7410
vn -0.9415 -0.0000 -0.3369
vn -0.9040 -0.0000 -0.4276
vn -0.9988 -0.0000 0.0491
vn -0.9988 -0.0000 -0.0491
vn -0.9040 -0.0000 0.4276
vn -0.9415 -0.0000 0.3369
vn -0.6716 -0.0000 0.7410
vn -0.7410 -0.0000 0.6715
vn -0.3369 -0.0000 0.9415
vn -0.4276 -0.0000 0.9040
vn 0.0491 -0.0000 0.9988
vn -0.0491 -0.0000 0.9988
vn 0.4276 -0.0000 0.9040
vn 0.3369 -0.0000 0.9415
vn 0.7410 -0.0000 0.6715
vn 0.6716 -0.0000 0.7410
vn 0.9415 -0.0000 0.3369
vn 0.9040 -0.0000 0.4276
vn 0.9892 -0.0000 -0.1467
vn 0.9700 -0.0000 -0.2430
vn 0.8577 -0.0000 -0.5141
vn 0.8032 -0.0000 -0.5957
vn 0.5957 -0.0000 -0.8032
vn 0.5141 -0.0000 -0.8577
vn 0.2430 -0.0000 -0.9700
vn 0.1467 -0.0000 -0.9892
vn -0.1467 -0.0000 -0.9892
vn -0.2430 -0.0000 -0.9700
vn -0.5141 -0.0000 -0.8577
vn -0.5957 -0.0000 -0.8032
vn -0.8032 -0.0000 -0.5957
vn -0.8577 -0.0000 -0.5141
vn -0.9700 -0.0000 -0.2430
vn -0.9892 -0.0000 -0.1467
vn -0.9892 -0.0000 0.1467
vn -0.9700 -0.0000 0.2430
vn -0.8577 -0.0000 0.5141
vn -0.8032 -0.0000 0.5957
vn -0.5957 -0.0000 0.8032
vn -0.5141 -0.0000 0.8577
vn -0.2430 -0.0000 0.9700
vn -0.1467 -0.0000 0.9892
vn 0.1467 -0.0000 0.9892
vn 0.2430 -0.0000 0.9700
vn 0.5141 -0.0000 0.8577
vn 0.5957 -0.0000 0.8032
vn 0.8032 -0.0000 0.5957
vn 0.8577 -0.0000 0.5141
vn 0.9700 -0.0000 0.2430
vn 0.9892 -0.0000 0.1467
vn 0.6257 0.7701 0.1245
vn 0.5304 0.7701 0.3544
vn 0.5304 0.7701 -0.3544
vn 0.6257 0.7701 -0.1245
vn 0.1245 0.7701 -0.6257
vn 0.3544 0.7701 -0.5304
vn -0.3544 0.7701 -0.5304
vn -0.1245 0.7701 -0.6257
vn -0.6257 0.7701 -0.1245
vn -0.5304 0.7701 -0.3544
vn -0.5304 0.7701 0.3544
vn -0.6257 0.7701 0.1245
vn -0.1245 0.7701 0.6257
vn -0.3544 0.7701 0.5304
vn 0.3544 0.7701 0.5304
vn 0.1245 0.7701 0.6257
vn 0.3308 0.9337 -0.1370
vn 0.4013 0.8233 -0.4013
vn 0.1370 0.9337 -0.3308
vn -0.0000 0.8233 -0.5676
vn -0.1370 0.9337 -0.3308
vn -0.4013 0.8233 -0.4013
vn -0.3308 0.9337 -0.1370
vn -0.5676 0.8233 -0.0000
vn -0.3308 0.9337 0.1370
vn -0.4013 0.8233 0.4013
vn -0.1370 0.9337 0.3308
vn -0.0000 0.8233 0.5676
vn 0.1370 0.9337 0.3308
vn 0.4013 0.8233 0.4013
vn 0.3308 0.9337 0.1370
vn 0.5676 0.8233 -0.0000
vn -0.0000 1.0000 -0.0000
vn 0.6680 -0.7322 -0.1329
vn 0.6680 -0.7322 0.1329
vn 0.3784 -0.7322 -0.5663
vn 0.5663 -0.7322 -0.3784
vn -0.1329 -0.7322 -0.6680
vn 0.1329 -0.7322 -0.6680
vn -0.5663 -0.7322 -0.3784
vn -0.3784 -0.7322 -0.5663
vn -0.6680 -0.7322 0.1329
vn -0.6680 -0.7322 -0.1329
vn -0.3784 -0.7322 0.5663
vn -0.5663 -0.7322 0.3784
vn 0.1329 -0.7322 0.6680
vn -0.1329 -0.7322 0.6680
vn 0.5663 -0.7322 0.3784
vn 0.3784 -0.7322 0.5663
vn 0.6529 -0.7574 -0.0000
vn 0.4617 -0.7574 -0.4617
vn -0.0000 -0.7574 -0.6529
vn -0.4617 -0.7574 -0.4617
vn -0.6529 -0.7574 -0.0000
vn -0.4617 -0.7574 0.4617
vn -0.0000 -0.7574 0.6529
vn 0.4617 -0.7574 0.4617
vn 0.6715 -0.0000 -0.7410
vn -0.6715 -0.0000 -0.7410
vn -0.6715 -0.0000 0.7410
vn -0.7410 -0.0000 0.6716
vn 0.7410 -0.0000 0.6716
vn 0.6715 -0.0000 0.7410
vn 0.6258 0.7699 0.1249
vn 0.6257 0.7701 0.1240
vn 0.6202 0.7747 0.1234
vn 0.5308 0.7699 0.3542
vn 0.5258 0.7746 0.3514
vn 0.5302 0.7701 0.3548
vn 0.5302 0.7701 -0.3548
vn 0.5258 0.7746 -0.3514
vn 0.5308 0.7699 -0.3542
vn 0.6257 0.7701 -0.1240
vn 0.6258 0.7699 -0.1249
vn 0.6202 0.7747 -0.1234
vn 0.1240 0.7701 -0.6257
vn 0.1234 0.7747 -0.6202
vn 0.1249 0.7699 -0.6258
vn 0.3548 0.7701 -0.5302
vn 0.3542 0.7699 -0.5308
vn 0.3514 0.7746 -0.5258
vn -0.3548 0.7701 -0.5302
vn -0.3514 0.7746 -0.5258
vn -0.3542 0.7699 -0.5308
vn -0.1240 0.7701 -0.6257
vn -0.1249 0.7699 -0.6258
vn -0.1234 0.7747 -0.6202
vn -0.6257 0.7701 -0.1240
vn -0.6202 0.7747 -0.1234
vn -0.6258 0.7699 -0.1249
vn -0.5302 0.7701 -0.3548
vn -0.5308 0.7699 -0.3542
vn -0.5258 0.7746 -0.3514
vn -0.5302 0.7701 0.3548
vn -0.5258 0.7746 0.3514
vn -0.5308 0.7699 0.3542
vn -0.6257 0.7701 0.1240
vn -0.6258 0.7699 0.1249
vn -0.6202 0.7747 0.1234
vn -0.1240 0.7701 0.6257
vn -0.1234 0.7747 0.6202
vn -0.1249 0.7699 0.6258
vn -0.3548 0.7701 0.5302
vn -0.3542 0.7699 0.5308
vn -0.3514 0.7746 0.5258
vn 0.3548 0.7701 0.5302
vn 0.3514 0.7746 0.5258
vn 0.3542 0.7699 0.5308
vn 0.1240 0.7701 0.6257
vn 0.1249 0.7699 0.6258
vn 0.1234 0.7747 0.6202
vn 0.6679 -0.7322 -0.1333
vn 0.6681 -0.7322 -0.1324
vn 0.6630 -0.7369 -0.1318
vn 0.6679 -0.7322 0.1333
vn 0.6630 -0.7369 0.1318
vn 0.6681 -0.7322 0.1324
vn 0.3780 -0.7322 -0.5666
vn 0.3788 -0.7322 -0.5660
vn 0.3753 -0.7373 -0.5617
vn 0.5666 -0.7322 -0.3780
vn 0.5617 -0.7373 -0.3754
vn 0.5660 -0.7322 -0.3788
vn -0.1333 -0.7322 -0.6679
vn -0.1324 -0.7322 -0.6681
vn -0.1318 -0.7370 -0.6629
vn 0.1333 -0.7322 -0.6679
vn 0.1318 -0.7373 -0.6626
vn 0.1324 -0.7322 -0.6681
vn -0.5666 -0.7322 -0.3780
vn -0.5660 -0.7322 -0.3788
vn -0.5617 -0.7373 -0.3754
vn -0.3780 -0.7322 -0.5666
vn -0.3753 -0.7373 -0.5617
vn -0.3788 -0.7322 -0.5660
vn -0.6679 -0.7322 0.1333
vn -0.6681 -0.7322 0.1324
vn -0.6630 -0.7369 0.1318
vn -0.6679 -0.7322 -0.1333
vn -0.6630 -0.7369 -0.1318
vn -0.6681 -0.7322 -0.1324
vn -0.3780 -0.7322 0.5666
vn -0.3788 -0.7322 0.5660
vn -0.3753 -0.7373 0.5617
vn -0.5666 -0.7322 0.3780
vn -0.5617 -0.7373 0.3754
vn -0.5660 -0.7322 0.3788
vn 0.1333 -0.7322 0.6679
vn 0.1324 -0.7322 0.6681
vn 0.1318 -0.7370 0.6629
vn -0.1333 -0.7322 0.6679
vn -0.1318 -0.7373 0.6626
vn -0.1324 -0.7322 0.6681
vn 0.5666 -0.7322 0.3780
vn 0.5660 -0.7322 0.3788
vn 0.5617 -0.7373 0.3754
vn 0.3780 -0.7322 0.5666
vn 0.3753 -0.7373 0.5617
vn 0.3788 -0.7322 0.5660
s 0
g off
usemtl Material.001
f 65//1 17//1 1//1
f 17//2 96//2 1//2
f 67//3 18//3 2//3
f 18//4 66//4 2//4
f 69//5 19//5 3//5
f 19//6 68//6 3//6
f 71//7 20//7 4//7
f 20//8 70//8 4//8
f 73//9 21//9 5//9
f 21//10 72//10 5//10
f 75//11 22//11 6//11
f 22//12 74//12 6//12
f 77//13 23//13 7//13
f 23//14 76//14 7//14
f 79//15 24//15 8//15
f 24//16 78//16 8//16
f 81//17 25//17 9//17
f 25//18 80//18 9//18
f 83//19 26//19 10//19
f 26//20 82//20 10//20
f 85//21 27//21 11//21
f 27//22 84//22 11//22
f 87//23 28//23 12//23
f 28//24 86//24 12//24
f 89//25 29//25 13//25
f 29//26 88//26 13//26
f 91//27 30//27 14//27
f 30//28 90//28 14//28
f 93//29 31//29 15//29
f 31//30 92//30 15//30
f 95//31 32//31 16//31
f 32//32 94//32 16//32
f 33//33 97//33 65//33
f 33//34 98//34 49//34
f 34//35 99//35 67//35
f 34//36 100//36 50//36
f 35//37 101//37 69//37
f 35//38 102//38 51//38
f 36//39 103//39 71//39
f 36//40 104//40 52//40
f 37//41 105//41 73//41
f 37//42 106//42 53//42
f 38//43 107//43 75//43
f 38//44 108//44 54//44
f 39//45 109//45 77//45
f 39//46 110//46 55//46
f 40//47 111//47 79//47
f 40//48 112//48 56//48
f 41//49 113//49 81//49
f 41//50 114//50 57//50
f 42//51 115//51 83//51
f 42//52 116//52 58//52
f 43//53 117//53 85//53
f 43//54 118//54 59//54
f 44//55 119//55 87//55
f 44//56 120//56 60//56
f 45//57 121//57 89//57
f 45//58 122//58 61//58
f 46//59 123//59 91//59
f 46//60 124//60 62//60
f 47//61 125//61 93//61
f 47//62 126//62 63//62
f 48//63 127//63 95//63
f 48//64 128//64 64//64
f 136//65 127//65 128//65
f 125//66 126//66 136//66
f 99//67 100//67 129//67
f 129//68 97//68 98//68
f 103//69 104//69 130//69
f 130//70 101//70 102//70
f 107//71 108//71 131//71
f 131//72 105//72 106//72
f 111//73 112//73 132//73
f 132//74 109//74 110//74
f 115//75 116//75 133//75
f 133//76 113//76 114//76
f 119//77 120//77 134//77
f 134//78 117//78 118//78
f 123//79 124//79 135//79
f 135//80 121//80 122//80
f 137//81 129//81 138//81
f 138//82 19//82 130//82
f 138//83 130//83 139//83
f 139//84 21//84 131//84
f 139//85 131//85 140//85
f 140//86 23//86 132//86
f 140//87 132//87 141//87
f 141//88 25//88 133//88
f 141//89 133//89 142//89
f 142//90 27//90 134//90
f 142//91 134//91 143//91
f 143//92 29//92 135//92
f 143//93 135//93 144//93
f 144//94 31//94 136//94
f 144//95 136//95 137//95
f 17//96 137//96 136//96
f 140//97 142//97 144//97
f 145//98 66//98 65//98
f 96//99 95//99 152//99
f 146//100 70//100 69//100
f 68//101 67//101 145//101
f 147//102 74//102 73//102
f 72//103 71//103 146//103
f 148//104 78//104 77//104
f 76//105 75//105 147//105
f 149//106 82//106 81//106
f 80//107 79//107 148//107
f 150//108 86//108 85//108
f 84//109 83//109 149//109
f 151//110 90//110 89//110
f 88//111 87//111 150//111
f 152//112 94//112 93//112
f 92//113 91//113 151//113
f 152//114 145//114 1//114
f 145//115 146//115 3//115
f 146//116 147//116 5//116
f 147//117 148//117 7//117
f 148//118 149//118 9//118
f 149//119 150//119 11//119
f 150//120 151//120 13//120
f 151//121 152//121 15//121
f 65//1 97//1 17//1
f 17//2 128//2 96//2
f 67//3 99//3 18//3
f 18//4 98//4 66//4
f 69//122 101//122 19//122
f 19//6 100//6 68//6
f 71//7 103//7 20//7
f 20//8 102//8 70//8
f 73//9 105//9 21//9
f 21//10 104//10 72//10
f 75//11 107//11 22//11
f 22//12 106//12 74//12
f 77//13 109//13 23//13
f 23//123 108//123 76//123
f 79//15 111//15 24//15
f 24//16 110//16 78//16
f 81//17 113//17 25//17
f 25//18 112//18 80//18
f 83//19 115//19 26//19
f 26//20 114//20 82//20
f 85//124 117//124 27//124
f 27//125 116//125 84//125
f 87//23 119//23 28//23
f 28//24 118//24 86//24
f 89//25 121//25 29//25
f 29//26 120//26 88//26
f 91//27 123//27 30//27
f 30//28 122//28 90//28
f 93//126 125//126 31//126
f 31//127 124//127 92//127
f 95//31 127//31 32//31
f 32//32 126//32 94//32
f 33//33 49//33 97//33
f 33//34 66//34 98//34
f 34//35 50//35 99//35
f 34//36 68//36 100//36
f 35//37 51//37 101//37
f 35//38 70//38 102//38
f 36//39 52//39 103//39
f 36//40 72//40 104//40
f 37//41 53//41 105//41
f 37//42 74//42 106//42
f 38//43 54//43 107//43
f 38//44 76//44 108//44
f 39//45 55//45 109//45
f 39//46 78//46 110//46
f 40//47 56//47 111//47
f 40//48 80//48 112//48
f 41//49 57//49 113//49
f 41//50 82//50 114//50
f 42//51 58//51 115//51
f 42//52 84//52 116//52
f 43//53 59//53 117//53
f 43//54 86//54 118//54
f 44//55 60//55 119//55
f 44//56 88//56 120//56
f 45//57 61//57 121//57
f 45//58 90//58 122//58
f 46//59 62//59 123//59
f 46//60 92//60 124//60
f 47//61 63//61 125//61
f 47//62 94//62 126//62
f 48//63 64//63 127//63
f 48//64 96//64 128//64
f 128//128 17//128 136//128
f 136//129 32//129 127//129
f 127//130 64//130 128//130
f 136//131 31//131 125//131
f 125//132 63//132 126//132
f 126//133 32//133 136//133
f 129//134 18//134 99//134
f 99//135 50//135 100//135
f 100//136 19//136 129//136
f 98//137 18//137 129//137
f 129//138 17//138 97//138
f 97//139 49//139 98//139
f 130//140 20//140 103//140
f 103//141 52//141 104//141
f 104//142 21//142 130//142
f 102//143 20//143 130//143
f 130//144 19//144 101//144
f 101//145 51//145 102//145
f 131//146 22//146 107//146
f 107//147 54//147 108//147
f 108//148 23//148 131//148
f 106//149 22//149 131//149
f 131//150 21//150 105//150
f 105//151 53//151 106//151
f 132//152 24//152 111//152
f 111//153 56//153 112//153
f 112//154 25//154 132//154
f 110//155 24//155 132//155
f 132//156 23//156 109//156
f 109//157 55//157 110//157
f 133//158 26//158 115//158
f 115//159 58//159 116//159
f 116//160 27//160 133//160
f 114//161 26//161 133//161
f 133//162 25//162 113//162
f 113//163 57//163 114//163
f 134//164 28//164 119//164
f 119//165 60//165 120//165
f 120//166 29//166 134//166
f 118//167 28//167 134//167
f 134//168 27//168 117//168
f 117//169 59//169 118//169
f 135//170 30//170 123//170
f 123//171 62//171 124//171
f 124//172 31//172 135//172
f 122//173 30//173 135//173
f 135//174 29//174 121//174
f 121//175 61//175 122//175
f 138//82 129//82 19//82
f 139//84 130//84 21//84
f 140//86 131//86 23//86
f 141//88 132//88 25//88
f 142//90 133//90 27//90
f 143//92 134//92 29//92
f 144//94 135//94 31//94
f 17//96 129//96 137//96
f 144//97 137//97 138//97
f 138//97 139//97 140//97
f 140//97 141//97 142//97
f 142//97 143//97 144//97
f 144//97 138//97 140//97
f 65//176 1//176 145//176
f 145//177 2//177 66//177
f 66//178 33//178 65//178
f 152//179 1//179 96//179
f 96//180 48//180 95//180
f 95//181 16//181 152//181
f 69//182 3//182 146//182
f 146//183 4//183 70//183
f 70//184 35//184 69//184
f 145//185 3//185 68//185
f 68//186 34//186 67//186
f 67//187 2//187 145//187
f 73//188 5//188 147//188
f 147//189 6//189 74//189
f 74//190 37//190 73//190
f 146//191 5//191 72//191
f 72//192 36//192 71//192
f 71//193 4//193 146//193
f 77//194 7//194 148//194
f 148//195 8//195 78//195
f 78//196 39//196 77//196
f 147//197 7//197 76//197
f 76//198 38//198 75//198
f 75//199 6//199 147//199
f 81//200 9//200 149//200
f 149//201 10//201 82//201
f 82//202 41//202 81//202
f 148//203 9//203 80//203
f 80//204 40//204 79//204
f 79//205 8//205 148//205
f 85//206 11//206 150//206
f 150//207 12//207 86//207
f 86//208 43//208 85//208
f 149//209 11//209 84//209
f 84//210 42//210 83//210
f 83//211 10//211 149//211
f 89//212 13//212 151//212
f 151//213 14//213 90//213
f 90//214 45//214 89//214
f 150//215 13//215 88//215
f 88//216 44//216 87//216
f 87//217 12//217 150//217
f 93//218 15//218 152//218
f 152//219 16//219 94//219
f 94//220 47//220 93//220
f 151//221 15//221 92//221
f 92//222 46//222 91//222
f 91//223 14//223 151//223
f 152//114 153//114 145//114
f 145//115 153//115 146//115
f 146//116 153//116 147//116
f 147//117 153//117 148//117
f 148//118 153//118 149//118
f 149//119 153//119 150//119
f 150//120 153//120 151//120
f 151//121 153//121 152//121
