# Blender 3.5.1
# www.blender.org
mtllib skybox.mtl
o Top
v -29.940346 48.176361 29.940346
v 29.940346 48.176361 29.940346
v -29.940346 48.176346 -29.940346
v 29.940346 48.176346 -29.940346
vn -0.0000 1.0000 -0.0000
vt 0.000000 0.000000
vt 1.000000 0.000000
vt 0.000000 1.000000
vt 1.000000 1.000000
s 0
usemtl Material.001
f 2/2/1 3/3/1 1/1/1
f 2/2/1 4/4/1 3/3/1
o Top.001
v -29.940346 53.057907 -29.585310
v 29.940346 53.057907 -29.585310
v -29.940346 -6.814156 -30.601942
v 29.940346 -6.814156 -30.601942
vn -0.0000 0.0170 -0.9999
vt 0.000000 0.000000
vt 1.000000 0.000000
vt 0.000000 1.000000
vt 1.000000 1.000000
s 0
usemtl Material.003
f 6/6/2 7/7/2 5/5/2
f 6/6/2 8/8/2 7/7/2
o Top.002
v -29.940346 53.057907 30.550779
v 29.940346 53.057907 30.550779
v -29.940346 -6.814156 29.534147
v 29.940346 -6.814156 29.534147
vn -0.0000 0.0170 -0.9999
vt 0.000000 0.000000
vt 1.000000 0.000000
vt 0.000000 1.000000
vt 1.000000 1.000000
s 0
usemtl Material.004
f 10/10/3 11/11/3 9/9/3
f 10/10/3 12/12/3 11/11/3
o Top.003
v -27.148212 53.057907 29.493504
v -27.148214 53.057907 -30.387188
v -28.164843 -6.814156 29.493504
v -28.164845 -6.814156 -30.387188
vn -0.9999 0.0170 -0.0000
vt 0.000000 0.000000
vt 1.000000 0.000000
vt 0.000000 1.000000
vt 1.000000 1.000000
s 0
usemtl Material.005
f 14/14/4 15/15/4 13/13/4
f 14/14/4 16/16/4 15/15/4
o Top.004
v 29.305279 53.057907 29.493504
v 29.305277 53.057907 -30.387188
v 28.288649 -6.814156 29.493504
v 28.288647 -6.814156 -30.387188
vn -0.9999 0.0170 -0.0000
vt 0.000000 0.000000
vt 1.000000 0.000000
vt 0.000000 1.000000
vt 1.000000 1.000000
s 0
usemtl Material.006
f 18/18/5 19/19/5 17/17/5
f 18/18/5 20/20/5 19/19/5
