# Blender 3.5.1
# www.blender.org
mtllib trees.mtl
o Cube.001
v -0.831318 -0.000001 -16.880976
v -0.691687 2.385551 -17.020607
v -0.831318 -0.000001 -18.080976
v -0.691687 2.385550 -17.941345
v 0.368682 -0.000001 -16.880976
v 0.229050 2.385551 -17.020607
v 0.368682 -0.000001 -18.080976
v 0.229050 2.385550 -17.941345
v -0.634095 4.091747 -17.188175
v -0.634095 4.091747 -17.993729
v 0.171458 4.091747 -17.993729
v 0.171458 4.091747 -17.188175
v -0.556891 5.222296 -17.305319
v -0.556891 5.222296 -17.998545
v 0.136335 5.222296 -17.998545
v 0.136335 5.222296 -17.305319
v -0.411678 7.519393 -17.531889
v -0.411678 7.519393 -17.934687
v -0.008879 7.519393 -17.934687
v -0.008879 7.519393 -17.531889
v -0.335781 8.710087 -17.607784
v -0.335781 8.710087 -17.858791
v -0.084776 8.710087 -17.858791
v -0.084776 8.710087 -17.607784
vn -0.9983 0.0584 -0.0000
vn -0.0000 0.0584 -0.9983
vn 0.9983 0.0584 -0.0000
vn -0.0000 0.0584 0.9983
vn -0.0000 -1.0000 -0.0000
vn -0.9994 0.0337 -0.0000
vn 0.9995 0.0311 -0.0000
vn -0.0000 0.0977 0.9952
vn -0.0000 -0.0307 -0.9995
vn 0.9994 0.0337 -0.0000
vn -0.0000 0.0982 0.9952
vn -0.9977 0.0681 -0.0000
vn -0.0000 0.1031 0.9947
vn -0.0000 -0.0043 -1.0000
vn 0.9980 0.0636 -0.0000
vn -0.0000 0.0278 -0.9996
vn 0.9980 0.0631 -0.0000
vn -0.9980 0.0631 -0.0000
vn -0.0000 1.0000 -0.0000
vn -0.9980 0.0636 -0.0000
vn -0.0000 0.0636 0.9980
vn -0.0000 0.0636 -0.9980
s 0
g off
usemtl Material.137
f 4//1 1//1 2//1
f 8//2 3//2 4//2
f 6//3 7//3 8//3
f 2//4 5//4 6//4
f 3//5 5//5 1//5
f 4//6 9//6 10//6
f 11//7 16//7 12//7
f 6//8 9//8 2//8
f 4//9 11//9 8//9
f 8//10 12//10 6//10
f 16//11 17//11 13//11
f 10//12 13//12 14//12
f 12//13 13//13 9//13
f 11//14 14//14 15//14
f 19//15 24//15 20//15
f 14//16 19//16 15//16
f 15//17 20//17 16//17
f 14//18 17//18 18//18
f 23//19 21//19 24//19
f 17//20 22//20 18//20
f 20//21 21//21 17//21
f 18//22 23//22 19//22
f 4//1 3//1 1//1
f 8//2 7//2 3//2
f 6//3 5//3 7//3
f 2//4 1//4 5//4
f 3//5 7//5 5//5
f 4//6 2//6 9//6
f 11//7 15//7 16//7
f 6//8 12//8 9//8
f 4//9 10//9 11//9
f 8//10 11//10 12//10
f 16//11 20//11 17//11
f 10//12 9//12 13//12
f 12//13 16//13 13//13
f 11//14 10//14 14//14
f 19//15 23//15 24//15
f 14//16 18//16 19//16
f 15//17 19//17 20//17
f 14//18 13//18 17//18
f 23//19 22//19 21//19
f 17//20 21//20 22//20
f 20//21 24//21 21//21
f 18//22 22//22 23//22
o Cube.004
v -18.726898 0.000001 10.798225
v -18.587267 2.385553 10.658594
v -18.726898 0.000001 9.598225
v -18.587267 2.385553 9.737856
v -17.526897 0.000001 10.798225
v -17.666529 2.385553 10.658594
v -17.526897 0.000001 9.598225
v -17.666529 2.385553 9.737856
v -18.529675 4.091749 10.491026
v -18.529675 4.091749 9.685472
v -17.724121 4.091749 9.685472
v -17.724121 4.091749 10.491026
v -18.452471 5.222298 10.373882
v -18.452471 5.222298 9.680656
v -17.759245 5.222298 9.680656
v -17.759245 5.222298 10.373882
v -18.307257 7.519396 10.147312
v -18.307257 7.519396 9.744514
v -17.904459 7.519396 9.744514
v -17.904459 7.519396 10.147312
v -18.231359 8.710089 10.071415
v -18.231359 8.710089 9.820410
v -17.980354 8.710089 9.820410
v -17.980354 8.710089 10.071415
vn -0.9983 0.0584 -0.0000
vn -0.0000 0.0584 -0.9983
vn 0.9983 0.0584 -0.0000
vn -0.0000 0.0584 0.9983
vn -0.0000 -1.0000 -0.0000
vn -0.9994 0.0337 -0.0000
vn 0.9995 0.0311 -0.0000
vn -0.0000 0.0977 0.9952
vn -0.0000 -0.0307 -0.9995
vn 0.9994 0.0337 -0.0000
vn -0.0000 0.0982 0.9952
vn -0.9977 0.0681 -0.0000
vn -0.0000 0.1031 0.9947
vn -0.0000 -0.0043 -1.0000
vn 0.9980 0.0636 -0.0000
vn -0.0000 0.0278 -0.9996
vn 0.9980 0.0631 -0.0000
vn -0.9980 0.0631 -0.0000
vn -0.0000 1.0000 -0.0000
vn -0.9980 0.0636 -0.0000
vn -0.0000 0.0636 0.9980
vn -0.0000 0.0636 -0.9980
s 0
g off
usemtl Material.137
f 28//23 25//23 26//23
f 32//24 27//24 28//24
f 30//25 31//25 32//25
f 26//26 29//26 30//26
f 27//27 29//27 25//27
f 28//28 33//28 34//28
f 35//29 40//29 36//29
f 30//30 33//30 26//30
f 28//31 35//31 32//31
f 32//32 36//32 30//32
f 40//33 41//33 37//33
f 34//34 37//34 38//34
f 36//35 37//35 33//35
f 35//36 38//36 39//36
f 43//37 48//37 44//37
f 38//38 43//38 39//38
f 39//39 44//39 40//39
f 38//40 41//40 42//40
f 47//41 45//41 48//41
f 41//42 46//42 42//42
f 44//43 45//43 41//43
f 42//44 47//44 43//44
f 28//23 27//23 25//23
f 32//24 31//24 27//24
f 30//25 29//25 31//25
f 26//26 25//26 29//26
f 27//27 31//27 29//27
f 28//28 26//28 33//28
f 35//29 39//29 40//29
f 30//30 36//30 33//30
f 28//31 34//31 35//31
f 32//32 35//32 36//32
f 40//33 44//33 41//33
f 34//34 33//34 37//34
f 36//35 40//35 37//35
f 35//36 34//36 38//36
f 43//37 47//37 48//37
f 38//38 42//38 43//38
f 39//39 43//39 44//39
f 38//40 37//40 41//40
f 47//41 46//41 45//41
f 41//42 45//42 46//42
f 44//43 48//43 45//43
f 42//44 46//44 47//44
o Cube.005
v 16.912455 -0.000000 -2.873892
v 17.052086 2.385552 -3.013523
v 16.912455 -0.000000 -4.073892
v 17.052086 2.385552 -3.934261
v 18.112455 -0.000000 -2.873892
v 17.972824 2.385552 -3.013523
v 18.112455 -0.000000 -4.073892
v 17.972824 2.385552 -3.934261
v 17.109678 4.091748 -3.181091
v 17.109678 4.091748 -3.986644
v 17.915232 4.091748 -3.986644
v 17.915232 4.091748 -3.181091
v 17.186882 5.222297 -3.298234
v 17.186882 5.222297 -3.991461
v 17.880108 5.222297 -3.991461
v 17.880108 5.222297 -3.298234
v 17.332096 7.519394 -3.524805
v 17.332096 7.519394 -3.927603
v 17.734894 7.519394 -3.927603
v 17.734894 7.519394 -3.524805
v 17.407993 8.710088 -3.600702
v 17.407993 8.710088 -3.851707
v 17.658998 8.710088 -3.851707
v 17.658998 8.710088 -3.600702
vn -0.9983 0.0584 -0.0000
vn -0.0000 0.0584 -0.9983
vn 0.9983 0.0584 -0.0000
vn -0.0000 0.0584 0.9983
vn -0.0000 -1.0000 -0.0000
vn -0.9994 0.0337 -0.0000
vn 0.9995 0.0311 -0.0000
vn -0.0000 0.0977 0.9952
vn -0.0000 -0.0307 -0.9995
vn 0.9994 0.0337 -0.0000
vn -0.0000 0.0982 0.9952
vn -0.9977 0.0681 -0.0000
vn -0.0000 0.1031 0.9947
vn -0.0000 -0.0043 -1.0000
vn 0.9980 0.0636 -0.0000
vn -0.0000 0.0278 -0.9996
vn 0.9980 0.0631 -0.0000
vn -0.9980 0.0631 -0.0000
vn -0.0000 1.0000 -0.0000
vn -0.9980 0.0636 -0.0000
vn -0.0000 0.0636 0.9980
vn -0.0000 0.0636 -0.9980
s 0
g off
usemtl Material.137
f 52//45 49//45 50//45
f 56//46 51//46 52//46
f 54//47 55//47 56//47
f 50//48 53//48 54//48
f 51//49 53//49 49//49
f 52//50 57//50 58//50
f 59//51 64//51 60//51
f 54//52 57//52 50//52
f 52//53 59//53 56//53
f 56//54 60//54 54//54
f 64//55 65//55 61//55
f 58//56 61//56 62//56
f 60//57 61//57 57//57
f 59//58 62//58 63//58
f 67//59 72//59 68//59
f 62//60 67//60 63//60
f 63//61 68//61 64//61
f 62//62 65//62 66//62
f 71//63 69//63 72//63
f 65//64 70//64 66//64
f 68//65 69//65 65//65
f 66//66 71//66 67//66
f 52//45 51//45 49//45
f 56//46 55//46 51//46
f 54//47 53//47 55//47
f 50//48 49//48 53//48
f 51//49 55//49 53//49
f 52//50 50//50 57//50
f 59//51 63//51 64//51
f 54//52 60//52 57//52
f 52//53 58//53 59//53
f 56//54 59//54 60//54
f 64//55 68//55 65//55
f 58//56 57//56 61//56
f 60//57 64//57 61//57
f 59//58 58//58 62//58
f 67//59 71//59 72//59
f 62//60 66//60 67//60
f 63//61 67//61 68//61
f 62//62 61//62 65//62
f 71//63 70//63 69//63
f 65//64 69//64 70//64
f 68//65 72//65 69//65
f 66//66 70//66 71//66
o Cube.009
v 5.118014 -0.040260 10.927473
v 5.024261 1.010657 10.946732
v 5.502636 0.010692 10.928998
v 5.319375 1.049751 10.947901
v 5.111102 -0.007208 11.566808
v 5.018959 1.036016 11.437282
v 5.495724 0.043743 11.568333
v 5.314072 1.075110 11.438451
v 4.979151 1.764005 10.938068
v 5.237345 1.798208 10.939092
v 5.232705 1.820395 11.368273
v 4.974511 1.786192 11.367249
v 4.950994 2.264518 10.953136
v 5.173185 2.293952 10.954017
v 5.169192 2.313045 11.323353
v 4.947001 2.283611 11.322473
v 4.890180 3.280675 10.977530
v 5.019284 3.297777 10.978042
v 5.016964 3.308872 11.192644
v 4.887860 3.291769 11.192133
v 4.845338 3.805650 10.990455
v 4.925790 3.816307 10.990774
v 4.924344 3.823221 11.124504
v 4.843893 3.812563 11.124186
vn 0.0015 0.0185 -0.9998
vn 0.9848 0.1737 0.0017
vn -0.0200 0.1214 0.9924
vn -0.9960 -0.0887 -0.0062
vn 0.1309 -0.9900 0.0526
vn 0.0055 -0.0112 -0.9999
vn -0.0157 0.0888 0.9959
vn -0.9982 -0.0599 -0.0077
vn 0.9940 0.1090 0.0051
vn -0.0161 0.0920 0.9956
vn -0.9982 -0.0596 -0.0077
vn -0.0000 0.0301 -0.9995
vn -0.9984 -0.0559 -0.0079
vn 0.9917 0.1282 0.0041
vn -0.0208 0.1276 0.9916
vn 0.9885 0.1515 0.0029
vn -0.0207 0.1270 0.9917
vn 0.0008 0.0240 -0.9997
vn -0.1309 0.9900 -0.0526
vn 0.0007 0.0247 -0.9997
vn -0.9964 -0.0849 -0.0064
vn 0.9841 0.1774 0.0015
vn 0.0054 -0.0112 -0.9999
vn -0.0208 0.1270 0.9917
s 0
g off
usemtl Material.139
f 76//67 73//67 74//67
f 80//68 75//68 76//68
f 78//69 79//69 80//69
f 74//70 77//70 78//70
f 75//71 77//71 73//71
f 76//72 81//72 82//72
f 83//73 88//73 84//73
f 78//74 81//74 74//74
f 76//75 83//75 80//75
f 80//76 84//76 78//76
f 88//77 89//77 85//77
f 82//78 85//78 86//78
f 84//79 85//79 81//79
f 83//80 86//80 87//80
f 91//81 96//81 92//81
f 86//82 91//82 87//82
f 87//83 92//83 88//83
f 86//84 89//84 90//84
f 95//85 93//85 96//85
f 89//86 94//86 90//86
f 92//87 93//87 89//87
f 90//88 95//88 91//88
f 76//67 75//67 73//67
f 80//68 79//68 75//68
f 78//69 77//69 79//69
f 74//70 73//70 77//70
f 75//71 79//71 77//71
f 76//89 74//89 81//89
f 83//73 87//73 88//73
f 78//74 84//74 81//74
f 76//75 82//75 83//75
f 80//76 83//76 84//76
f 88//77 92//77 89//77
f 82//78 81//78 85//78
f 84//79 88//79 85//79
f 83//80 82//80 86//80
f 91//81 95//81 96//81
f 86//82 90//82 91//82
f 87//90 91//90 92//90
f 86//84 85//84 89//84
f 95//85 94//85 93//85
f 89//86 93//86 94//86
f 92//87 96//87 93//87
f 90//88 94//88 95//88
o Cube.010
v 10.432178 0.000001 18.445620
v 10.571809 2.385553 18.305988
v 10.432178 0.000001 17.245619
v 10.571809 2.385553 17.385250
v 11.632178 0.000001 18.445620
v 11.492547 2.385553 18.305988
v 11.632178 0.000001 17.245619
v 11.492547 2.385553 17.385250
v 10.629401 4.091750 18.138420
v 10.629401 4.091750 17.332867
v 11.434955 4.091750 17.332867
v 11.434955 4.091750 18.138420
v 10.706605 5.222299 18.021276
v 10.706605 5.222299 17.328051
v 11.399831 5.222299 17.328051
v 11.399831 5.222299 18.021276
v 10.851819 7.519396 17.794706
v 10.851819 7.519396 17.391909
v 11.254618 7.519396 17.391909
v 11.254618 7.519396 17.794706
v 10.927715 8.710089 17.718811
v 10.927715 8.710089 17.467804
v 11.178720 8.710089 17.467804
v 11.178720 8.710089 17.718811
vn -0.9983 0.0584 -0.0000
vn -0.0000 0.0584 -0.9983
vn 0.9983 0.0584 -0.0000
vn -0.0000 0.0584 0.9983
vn -0.0000 -1.0000 -0.0000
vn -0.9994 0.0337 -0.0000
vn 0.9995 0.0311 -0.0000
vn -0.0000 0.0977 0.9952
vn -0.0000 -0.0307 -0.9995
vn 0.9994 0.0337 -0.0000
vn -0.0000 0.0982 0.9952
vn -0.9977 0.0681 -0.0000
vn -0.0000 0.1031 0.9947
vn -0.0000 -0.0043 -1.0000
vn 0.9980 0.0636 -0.0000
vn -0.0000 0.0278 -0.9996
vn 0.9980 0.0631 -0.0000
vn -0.9980 0.0631 -0.0000
vn -0.0000 1.0000 -0.0000
vn -0.9980 0.0636 -0.0000
vn -0.0000 0.0636 0.9980
vn -0.0000 0.0636 -0.9980
s 0
g off
usemtl Material.140
f 100//91 97//91 98//91
f 104//92 99//92 100//92
f 102//93 103//93 104//93
f 98//94 101//94 102//94
f 99//95 101//95 97//95
f 100//96 105//96 106//96
f 107//97 112//97 108//97
f 102//98 105//98 98//98
f 100//99 107//99 104//99
f 104//100 108//100 102//100
f 112//101 113//101 109//101
f 106//102 109//102 110//102
f 108//103 109//103 105//103
f 107//104 110//104 111//104
f 115//105 120//105 116//105
f 110//106 115//106 111//106
f 111//107 116//107 112//107
f 110//108 113//108 114//108
f 119//109 117//109 120//109
f 113//110 118//110 114//110
f 116//111 117//111 113//111
f 114//112 119//112 115//112
f 100//91 99//91 97//91
f 104//92 103//92 99//92
f 102//93 101//93 103//93
f 98//94 97//94 101//94
f 99//95 103//95 101//95
f 100//96 98//96 105//96
f 107//97 111//97 112//97
f 102//98 108//98 105//98
f 100//99 106//99 107//99
f 104//100 107//100 108//100
f 112//101 116//101 113//101
f 106//102 105//102 109//102
f 108//103 112//103 109//103
f 107//104 106//104 110//104
f 115//105 119//105 120//105
f 110//106 114//106 115//106
f 111//107 115//107 116//107
f 110//108 109//108 113//108
f 119//109 118//109 117//109
f 113//110 117//110 118//110
f 116//111 120//111 117//111
f 114//112 118//112 119//112
o Cube.011
v -11.158782 -0.000001 -8.377052
v -11.084286 1.051663 -8.422198
v -11.158782 -0.000001 -8.765038
v -11.084286 1.051663 -8.719892
v -10.518556 -0.000001 -8.377052
v -10.593052 1.051663 -8.422198
v -10.518556 -0.000001 -8.765038
v -10.593052 1.051663 -8.719892
v -11.053558 1.803836 -8.476377
v -11.053558 1.803836 -8.736828
v -10.623779 1.803836 -8.736828
v -10.623779 1.803836 -8.476377
v -11.012369 2.302235 -8.514252
v -11.012369 2.302235 -8.738385
v -10.642518 2.302235 -8.738385
v -10.642518 2.302235 -8.514252
v -10.934895 3.314905 -8.587506
v -10.934895 3.314905 -8.717739
v -10.719993 3.314905 -8.717739
v -10.719993 3.314905 -8.587506
v -10.894402 3.839819 -8.612045
v -10.894402 3.839819 -8.693200
v -10.760485 3.839819 -8.693200
v -10.760485 3.839819 -8.612045
vn -0.9975 0.0707 -0.0000
vn -0.0000 0.0429 -0.9991
vn 0.9975 0.0707 -0.0000
vn -0.0000 0.0429 0.9991
vn -0.0000 -1.0000 -0.0000
vn -0.9992 0.0408 -0.0000
vn 0.9993 0.0376 -0.0000
vn -0.0000 0.0718 0.9974
vn -0.0000 -0.0225 -0.9997
vn 0.9992 0.0408 -0.0000
vn -0.0000 0.0721 0.9974
vn -0.9966 0.0824 -0.0000
vn -0.0000 0.0758 0.9971
vn -0.0000 -0.0031 -1.0000
vn 0.9970 0.0769 -0.0000
vn -0.0000 0.0204 -0.9998
vn 0.9971 0.0763 -0.0000
vn -0.9971 0.0763 -0.0000
vn -0.0000 1.0000 -0.0000
vn -0.9970 0.0769 -0.0000
vn -0.0000 0.0467 0.9989
vn -0.0000 0.0467 -0.9989
s 0
g off
usemtl Material.141
f 124//113 121//113 122//113
f 128//114 123//114 124//114
f 126//115 127//115 128//115
f 122//116 125//116 126//116
f 123//117 125//117 121//117
f 124//118 129//118 130//118
f 131//119 136//119 132//119
f 126//120 129//120 122//120
f 124//121 131//121 128//121
f 128//122 132//122 126//122
f 136//123 137//123 133//123
f 130//124 133//124 134//124
f 132//125 133//125 129//125
f 131//126 134//126 135//126
f 139//127 144//127 140//127
f 134//128 139//128 135//128
f 135//129 140//129 136//129
f 134//130 137//130 138//130
f 143//131 141//131 144//131
f 137//132 142//132 138//132
f 140//133 141//133 137//133
f 138//134 143//134 139//134
f 124//113 123//113 121//113
f 128//114 127//114 123//114
f 126//115 125//115 127//115
f 122//116 121//116 125//116
f 123//117 127//117 125//117
f 124//118 122//118 129//118
f 131//119 135//119 136//119
f 126//120 132//120 129//120
f 124//121 130//121 131//121
f 128//122 131//122 132//122
f 136//123 140//123 137//123
f 130//124 129//124 133//124
f 132//125 136//125 133//125
f 131//126 130//126 134//126
f 139//127 143//127 144//127
f 134//128 138//128 139//128
f 135//129 139//129 140//129
f 134//130 133//130 137//130
f 143//131 142//131 141//131
f 137//132 141//132 142//132
f 140//133 144//133 141//133
f 138//134 142//134 143//134
